<svg xmlns="http://www.w3.org/2000/svg" width="506.039" height="421.535" viewBox="0 0 506.039 421.535">
  <g id="Animación_oso" data-name="Animación oso" transform="translate(-106.981 -2974.751)">
    <path id="Trazado_11661" data-name="Trazado 11661" d="M228.7,0H76.233L0,132.04,76.233,264.08H228.7l76.233-132.04Z" transform="translate(231.853 3264.246) rotate(-60)" fill="#e1df3c"/>
    <path id="Trazado_11656" data-name="Trazado 11656" d="M2610.124,3187.7l11.5,10.9a.51.51,0,0,0,.1.07l6.658,3.631a.463.463,0,0,0,.224.058h8.473a.466.466,0,0,0,.307-.116l4.843-4.236a.47.47,0,0,0,.159-.353v-7.262a.468.468,0,0,0-.24-.409l-5.429-3.016-7.646-4.7v-5.586l6.5-5.911,22.734-20.4-2.328,29.1a.46.46,0,0,0,.013.15l2.421,9.684a.461.461,0,0,0,.208.283l7.869,4.842a.456.456,0,0,0,.226.069l31.418,1.186.291.427.763-.521,7.065-2.942a.475.475,0,0,0,.257-.269l1.816-4.841a.465.465,0,0,0,0-.337l-2.42-6.052a.469.469,0,0,0-.434-.294h-4.819l-11.869-.594-3.386-5.08,2.371-9.483.009-.045,2.394-16.156,5.131-3.99,8.869,1.774a.486.486,0,0,0,.108.009l17.53-.6,11.146.587,2.307,8.074-2.415,35.627a.463.463,0,0,0,.084.3l3.956,5.653.242.56.138-.059a.436.436,0,0,0,.093.057l10.894,4.843a.468.468,0,0,0,.189.041h19.972a.442.442,0,0,0,.092-.009l12.1-2.421a.467.467,0,0,0,.373-.412l.606-6.052a.473.473,0,0,0-.1-.338l-4.843-6.052a.466.466,0,0,0-.364-.175h-5.989l-6.385-1.741-2.26-5.088,4.182-14.339,12.269-30.382,7.435,18.3a.467.467,0,0,0,.088.14l13.891,15.1,9.669,15.712,6.052,9.078a.465.465,0,0,0,.388.208h36.919a.469.469,0,0,0,.382-.2l4.237-6.052a.468.468,0,0,0,.01-.519l-4.235-6.657a.464.464,0,0,0-.345-.214l-14.744-1.58-.113-.109a.467.467,0,0,0-.593-.044l-.1.067-1.169-.125-10.757-17.927-11.458-27.742-1.191-14.3,4.608-7.487,11.694,1.17,8.25,5.671-.072.461.922.144,0-.019.481.331a.48.48,0,0,0,.121.059l22.393,7.263a.473.473,0,0,0,.122.022l12.1.6a.458.458,0,0,0,.245-.054l15.736-8.474a.473.473,0,0,0,.227-.277.468.468,0,0,0-.039-.355l-12-22.207,3.558-9.485a.463.463,0,0,0,0-.328l-5.447-14.525a.464.464,0,0,0-.062-.114l-13.89-18.722-2.4-5.4a.445.445,0,0,0-.073-.113l-3.631-4.238a.459.459,0,0,0-.289-.158l-8.473-1.211a.463.463,0,0,0-.352.095l-5.15,4-.441-.188-.082.191-7.25-1.673-22.981-5.443-16.928-5.441a.256.256,0,0,0-.033-.006.333.333,0,0,0-.05-.01c-.009,0-.017,0-.026-.005l-24.815-1.815a.489.489,0,0,0-.21.033l-16.287,6.635-17.444,2.406-37.468-3.021-19.972-1.817a.463.463,0,0,0-.263.054l-16.946,9.079a.5.5,0,0,0-.087.059L2641,3060.514a.5.5,0,0,0-.064.068l-9.684,12.71a.474.474,0,0,0-.067.124l-9.684,26.63a.448.448,0,0,0-.026.193l1.206,16.288-3.6,22.827-12.646,16.261-6.053,8.473a.464.464,0,0,0-.081.341l1.815,12.1a.462.462,0,0,0,.083.2l.348.48-.065.308.338.071,7.247,10.035A.513.513,0,0,0,2610.124,3187.7Zm26.119.07,5.207,2.892v6.776l-4.55,3.982h-7.83v-18.065Zm64.381-5.994h4.527l2.237,5.59-1.682,4.483-6.981,2.91-.084,0-9.206-13.539Zm-3.143,12.936-30.609-1.155-7.523-4.63,28.972-7.687Zm-9.711-14.291-28.71,7.615-2.146-8.582,2.335-29.178,25.276,25.277Zm1.674-31.558a.466.466,0,0,0-.176.3l-2.417,16.319-2.215,8.861-24.76-24.76,33.7-3.931Zm43.43-2.542-11.042-.581h-.04l-17.5.6-9.024-1.8a.485.485,0,0,0-.146,0v0l-34.529,4.029,24.562-17.708,51.25-34.564Zm-40.271-52.284-7.505-28.519,50.964,29.876-50.493,34.054,7.04-35.2A.467.467,0,0,0,2692.6,3094.034Zm-.931.133-7.063,35.317-39.354-42.037,38.787-22.274Zm78.431,93.642a.477.477,0,0,0,.123.016h5.829l4.583,5.729-.552,5.519-11.348,2.27-4.482-15.128Zm-2.318,13.608h-19.249l-10.126-4.5,24.86-10.736Zm-4.834-16.117-25.383,10.962-3.784-5.405,2.342-34.536,24.631,24.046Zm14.949-51.622a.466.466,0,0,0-.238.245L2764.95,3165.4a.39.39,0,0,0-.014.044l-4.019,13.778-24.774-24.184-2.365-8.275,3.585-50.777,73.322,22.47-32.787,15.224Zm74.365,47.463,3.948,6.2-3.746,5.351-13.523-12.983Zm-14.972-1.6.133.015,13.951,13.392H2818.3Zm-2.1-.412a.467.467,0,0,0,.351.224l.345.036-19.206,13.558h-.812l-5.9-8.857-9.684-15.735a.517.517,0,0,0-.054-.072l-12.969-14.1,37.148,6.965Zm-22.459-46.2a.434.434,0,0,0,.034.139l11.171,27.046-37.637-7.058-7.6-18.719,32.883-15.267Zm4.331-22.95-22.491-37.485,45.351,26.745-1.044,6.687Zm20.114,6.83-7.978-5.486a.478.478,0,0,0-.218-.08l-8.848-.885,18.593-3.454Zm23.92,8.356-22.271-7.223-.794-.546,1.612-10.321,31.6,18.6Zm27.122-7.594-7.227,3.892,2.936-11.831Zm-11.909-22.368a.47.47,0,0,0,.027.385l6.931,12.823-3.342,13.473.193.047-6.993,3.767L2839.8,3106.08l1.052-6.732,38.748-12.916Zm-1.792-23.82,5.254,14.01-39.032,13.011-15.288-49.852,11.542,5.375,1.771,9.448a.463.463,0,0,0,.266.339l6.657,3.027a.464.464,0,0,0,.51-.082l14.749-13.57Zm-33.427-25.183a.466.466,0,0,0,.235-.094l5.291-4.114,8.1,1.158,3.471,4.05,2.258,5.08-14.658,13.483-6.154-2.8-1.746-9.306Zm-31.061-7.28.036.01,23,5.448,7.087,1.635-2.986,6.967-36.975-17.222Zm-16.337-5.158,30.62,14.26,15.322,49.964-45.942-27.094Zm-41.23,4.453,16.024-6.528,24.272,1.776v37.7a.472.472,0,0,0,.067.241l23.458,39.1-4.5,7.318-74.274-22.761Zm-110.807,22.976,18.686-16.276,16.776-8.987,19.838,1.8,37.525,3.026a.413.413,0,0,0,.1,0l16.858-2.325-14.8,56.225-51.882-30.415-7.289-27.7-.9.238,7.228,27.462-39.2,22.51-12.36-13.2Zm-19.238,39.084,9.39-25.821,11.96,12.775-20.845,11.97.465.81,21.035-12.08,39.762,42.473-25.6,18.453c-.006,0-.01.011-.016.017a.134.134,0,0,0-.022.014l-23.606,21.185-6.013,5.466-5.312-59.023Zm-19.4,76.013-1.771-11.806,5.932-8.3,12.71-16.341a.473.473,0,0,0,.093-.214l3.042-19.274,5.108,56.747v4.852l-24.771-5.185Zm25.114,6.612v18.2l-5.913-3.225L2610.8,3187.05l-6.622-9.168Z" transform="translate(-2424.592 77.234)" stroke="#000" stroke-width="2"/>
    <g id="Grupo_11682" data-name="Grupo 11682" transform="translate(106.981 3007.242)">
      <path id="Trazado_11583" data-name="Trazado 11583" d="M714.576-86.452v6.8h-.358q-12.046-.717-23.372-1.669-13.714-.954-15.859-1.074l4.055,1.908Q701.816-69.758,710.4-65.347l.357.239L707.3-59.265l-.238-.239q-8.827-5.723-22.179-14.786-7.512-5.246-10.494-7.154l6.559,9.658q8.7,12.4,15.62,23.014l.12.238-5.844,3.458-.119-.358Q687.268-52.109,680-67.254q-3.7-7.75-6.678-13.831,0,.835.835,10.612,1.669,21.346,2.027,28.975v.358h-6.8V-41.5q.717-12.043,1.669-23.372.954-13.711,1.073-15.858l-1.908,4.054Q659.486-53.9,655.075-45.313l-.238.357-5.844-3.457.238-.238q5.725-8.824,14.787-22.179,5.245-7.512,7.154-10.493l-9.659,6.558q-12.4,8.706-23.013,15.621l-.238.12L634.8-64.87l.358-.119q6.676-3.457,21.821-10.731,7.75-3.7,13.832-6.678-.836,0-10.612.835-21.346,1.671-28.975,2.027h-.358v-6.8h.358q12.043.715,23.371,1.668,13.711.957,15.86,1.074L666.4-85.5q-22.777-10.731-31.361-15.143l-.357-.238,3.458-5.844.239.239q8.823,5.723,22.178,14.786,7.512,5.247,10.493,7.154L664.495-94.2q-8.706-12.4-15.621-23.013l-.12-.238,5.843-3.458.12.358q3.457,6.679,10.732,21.821,3.693,7.753,6.677,13.833,0-.835-.834-10.613-1.672-21.343-2.027-28.975v-.358h6.8v.358q-.715,12.046-1.669,23.371-.956,13.714-1.073,15.86l1.908-4.055q10.733-22.774,15.144-31.36l.239-.358,5.843,3.457-.239.239q-5.723,8.825-14.786,22.178-5.249,7.512-7.154,10.493l9.658-6.558q12.4-8.7,23.014-15.621l.239-.12,3.458,5.843-.358.12q-6.679,3.46-21.821,10.732-7.753,3.7-13.832,6.677.832,0,10.613-.835,21.343-1.669,28.975-2.027Z" transform="translate(-630.868 124.848)" fill="#e6511b"/>
    </g>
    <g id="Grupo_11684" data-name="Grupo 11684" transform="translate(566.562 3000.166) rotate(180)">
      <ellipse id="Elipse_661" data-name="Elipse 661" cx="12.707" cy="12.707" rx="12.707" ry="12.707" transform="translate(0 0)" fill="#37a87e"/>
      <ellipse id="Elipse_662" data-name="Elipse 662" cx="12.707" cy="12.707" rx="12.707" ry="12.707" transform="translate(19.258 0)" fill="#37a87e"/>
      <ellipse id="Elipse_663" data-name="Elipse 663" cx="12.707" cy="12.707" rx="12.707" ry="12.707" transform="translate(38.516 0)" fill="#37a87e"/>
      <ellipse id="Elipse_664" data-name="Elipse 664" cx="12.707" cy="12.707" rx="12.707" ry="12.707" transform="translate(57.774 0)" fill="#37a87e"/>
    </g>
  </g>
</svg>
