<svg xmlns="http://www.w3.org/2000/svg" width="211.941" height="211.941" viewBox="0 0 211.941 211.941">
  <g id="svg_figura_móvil_asterisco_negro" data-name="svg_figura móvil_asterisco negro" transform="translate(-630.868 124.848)">
    <path id="Trazado_11583" data-name="Trazado 11583" d="M842.809-27.632v17.21H841.9q-30.5-1.814-59.176-4.227Q748-17.066,742.574-17.369l10.266,4.83Q810.5,14.635,832.243,25.8l.9.606L824.393,41.2l-.6-.606Q801.44,26.107,767.633,3.161q-19.02-13.282-26.569-18.113L757.67,9.5q22.035,31.4,39.55,58.269l.3.6-14.8,8.756-.3-.906q-8.76-16.9-27.17-55.249-9.366-19.622-16.909-35.02,0,2.113,2.113,26.87,4.226,54.045,5.133,73.363v.906h-17.21v-.906q1.814-30.492,4.227-59.176Q735.027-7.7,735.328-13.14L730.5-2.876q-27.17,57.67-38.34,79.4l-.6.9-14.8-8.754.6-.6Q691.855,45.732,714.8,11.917,728.079-7.1,732.914-14.65l-24.456,16.6Q677.057,24,650.191,41.5l-.6.3-8.756-14.8.906-.3q16.9-8.753,55.25-27.17,19.622-9.358,35.02-16.909-2.117,0-26.87,2.113-54.045,4.23-73.363,5.133h-.906V-27.329h.906q30.492,1.81,59.173,4.224,34.714,2.424,40.156,2.719l-10.266-4.833q-57.67-27.17-79.4-38.34l-.9-.6,8.754-14.8.606.606q22.338,14.49,56.154,37.436Q725.064-27.63,732.611-22.8l-16.6-24.456q-22.042-31.393-39.55-58.267l-.3-.6,14.793-8.756.3.906Q700-97.068,718.423-58.729q9.351,19.63,16.9,35.023,0-2.113-2.111-26.872-4.234-54.038-5.133-73.363v-.906h17.207v.906q-1.81,30.5-4.227,59.173-2.42,34.722-2.717,40.156l4.83-10.266q27.174-57.662,38.343-79.4l.606-.906,14.793,8.754-.606.606q-14.49,22.345-37.436,56.153-13.29,19.02-18.114,26.567l24.453-16.6q31.4-22.035,58.269-39.55l.6-.3,8.756,14.793-.906.3q-16.911,8.76-55.25,27.173-19.63,9.358-35.02,16.907,2.106,0,26.87-2.113,54.038-4.227,73.363-5.133Z" transform="translate(0 0)"/>
  </g>
</svg>
