<svg xmlns="http://www.w3.org/2000/svg" width="20.941" height="22.09" viewBox="0 0 20.941 22.09">
  <g id="Grupo_12069" data-name="Grupo 12069" transform="translate(0.5 0.5)">
    <path id="Trazado_11751" data-name="Trazado 11751" d="M2041.34,1363.137a.454.454,0,0,1,.447.448v11.934a.453.453,0,0,1-.447.447H2027.1l-.477.476-1.528,1.528v-5.707h.014v-8.68a.454.454,0,0,1,.447-.448h15.78m0-1.626h-15.78a2.08,2.08,0,0,0-2.073,2.074v6.933h-.014v11.377l4.3-4.3h13.564a2.08,2.08,0,0,0,2.073-2.073v-11.934a2.08,2.08,0,0,0-2.073-2.074Z" transform="translate(-2023.473 -1361.511)" fill="#e9e6e1" stroke="#e9e6e1" stroke-width="1"/>
  </g>
</svg>
