<svg xmlns="http://www.w3.org/2000/svg" width="20.726" height="20.726" viewBox="0 0 20.726 20.726">
  <path id="Trazado_11934" data-name="Trazado 11934" d="M10.363,0A10.363,10.363,0,1,0,20.726,10.363,10.375,10.375,0,0,0,10.363,0Zm.489,6.519a17.2,17.2,0,0,0,3.964-.489,15.342,15.342,0,0,1,.59,3.845H10.852Zm0-.978V1.1c1.493.278,2.817,1.813,3.651,4A16.258,16.258,0,0,1,10.852,5.541ZM9.874,1.1V5.521a15.6,15.6,0,0,1-3.589-.572C7.122,2.842,8.417,1.37,9.874,1.1Zm0,5.4V9.874H5.32a15.251,15.251,0,0,1,.639-4.005A16.57,16.57,0,0,0,9.874,6.5ZM4.342,9.874H1A9.327,9.327,0,0,1,3,4.561a10.836,10.836,0,0,0,2.008.993A16.436,16.436,0,0,0,4.342,9.874Zm0,.978a16.49,16.49,0,0,0,.637,4.215,11.3,11.3,0,0,0-2.08.964A9.321,9.321,0,0,1,1,10.852Zm.978,0H9.874v3.366a16.926,16.926,0,0,0-3.943.556A15.311,15.311,0,0,1,5.32,10.852ZM9.874,15.2v4.433C8.4,19.353,7.088,17.848,6.253,15.7A15.98,15.98,0,0,1,9.874,15.2Zm.978,4.433V15.2a15.98,15.98,0,0,1,3.622.5C13.638,17.848,12.328,19.353,10.852,19.628Zm0-5.41V10.852h4.554a15.311,15.311,0,0,1-.612,3.922A16.926,16.926,0,0,0,10.852,14.218Zm5.532-3.366h3.34a9.321,9.321,0,0,1-1.9,5.179,11.3,11.3,0,0,0-2.08-.964A16.49,16.49,0,0,0,16.384,10.852Zm0-.978a16.542,16.542,0,0,0-.61-4.118,11.777,11.777,0,0,0,2.149-.932,9.318,9.318,0,0,1,1.8,5.05Zm.91-5.817a10.963,10.963,0,0,1-1.822.772,9.218,9.218,0,0,0-1.991-3.308A9.4,9.4,0,0,1,17.294,4.057ZM7.246,1.521a9.051,9.051,0,0,0-1.92,3.107,9.978,9.978,0,0,1-1.674-.812A9.4,9.4,0,0,1,7.246,1.521ZM3.539,16.787a10.476,10.476,0,0,1,1.749-.793A9.139,9.139,0,0,0,7.246,19.2,9.4,9.4,0,0,1,3.539,16.787ZM13.481,19.2a9.138,9.138,0,0,0,1.957-3.211,10.475,10.475,0,0,1,1.749.793A9.4,9.4,0,0,1,13.481,19.2Z" transform="translate(0 20.726) rotate(-90)" fill="#e9e6e1"/>
</svg>
