<svg xmlns="http://www.w3.org/2000/svg" width="20.726" height="20.57" viewBox="0 0 20.726 20.57">
  <g id="Grupo_12039" data-name="Grupo 12039" transform="translate(0 20.57) rotate(-90)">
    <g id="Grupo_11859" data-name="Grupo 11859">
      <g id="Grupo_11856" data-name="Grupo 11856">
        <path id="Trazado_11787" data-name="Trazado 11787" d="M13.857,20.726H6.713A6.72,6.72,0,0,1,0,14.014v-7.3A6.72,6.72,0,0,1,6.713,0h7.144A6.72,6.72,0,0,1,20.57,6.712v7.3A6.721,6.721,0,0,1,13.857,20.726ZM6.713,1.683a5.035,5.035,0,0,0-5.03,5.029v7.3a5.035,5.035,0,0,0,5.03,5.03h7.144a5.036,5.036,0,0,0,5.03-5.03v-7.3a5.035,5.035,0,0,0-5.03-5.029Z" fill="#e9e6e1"/>
      </g>
      <g id="Grupo_11857" data-name="Grupo 11857" transform="translate(5.097 5.195)">
        <path id="Trazado_11788" data-name="Trazado 11788" d="M5.172,10.345A5.172,5.172,0,0,1,1.5,1.533a5.172,5.172,0,0,1,8.847,3.615,5.2,5.2,0,0,1-5.145,5.2Zm0-8.662H5.155a3.49,3.49,0,0,0,.017,6.98h.015A3.515,3.515,0,0,0,8.663,5.155a3.491,3.491,0,0,0-3.49-3.472Z" fill="#e9e6e1"/>
      </g>
      <g id="Grupo_11858" data-name="Grupo 11858" transform="translate(14.893 3.871)">
        <path id="Trazado_11789" data-name="Trazado 11789" d="M.9,1.795a.9.9,0,1,1,.893-.9h0A.9.9,0,0,1,.9,1.795Z" fill="#e9e6e1"/>
      </g>
    </g>
  </g>
</svg>
