<svg xmlns="http://www.w3.org/2000/svg" width="165.999" height="45.738" viewBox="0 0 165.999 45.738">
  <g id="Grupo_12251" data-name="Grupo 12251" transform="translate(-74.613 -90.844)">
    <g id="Grupo_3324" data-name="Grupo 3324" transform="translate(74.613 90.844)">
      <g id="Grupo_3323" data-name="Grupo 3323">
        <path id="Trazado_11499" data-name="Trazado 11499" d="M87.332,93.649H74.718a.105.105,0,0,0-.1.1v.383a.105.105,0,0,0,.082.1l3.486.8v30.951l-3.486.8a.1.1,0,0,0-.082.1v.383a.1.1,0,0,0,.1.1H87.332a.1.1,0,0,0,.1-.1V93.754A.105.105,0,0,0,87.332,93.649Z" transform="translate(-74.613 -92.5)" fill="#fff"/>
        <path id="Trazado_11500" data-name="Trazado 11500" d="M114.454,109.647c6.683-.611,9.137-4.984,9.137-7.9v-.144c0-4.982-3.924-7.956-10.5-7.956h-2.533a.1.1,0,0,0-.1.1v.383a.1.1,0,0,0,.1.1h.827c2.386,0,3.359,2.161,3.359,7.459v.383c0,5.538-.741,7.315-3.049,7.315h-1.137a.1.1,0,0,0-.1.105v.383a.1.1,0,0,0,.1.1H111.6a2.7,2.7,0,0,1,2.7,1.6c.627,1.253.919,3.327.919,6.529v1.149c0,7-1.249,7.507-3.307,7.507h-1.292a.105.105,0,0,0-.1.105v.383a.1.1,0,0,0,.1.1h2.792c3.945,0,6.988-1.011,9.043-3a8.158,8.158,0,0,0,2.487-5.814v-.288C124.935,114.351,121.34,110.243,114.454,109.647Z" transform="translate(-95.775 -92.5)" fill="#fff"/>
        <path id="Trazado_11501" data-name="Trazado 11501" d="M184.638,116.089a3.9,3.9,0,1,0,4.241,3.983A4.122,4.122,0,0,0,184.638,116.089Z" transform="translate(-137.127 -105.748)" fill="#fff"/>
        <path id="Trazado_11502" data-name="Trazado 11502" d="M163.495,140.676l-3.487-.842V117.129a.1.1,0,0,0-.1-.1H149.719a.1.1,0,0,0-.105.1v.335a.1.1,0,0,0,.048.088l2.175,1.405V139.98l-2.559.7a.105.105,0,0,0-.077.1v.288a.1.1,0,0,0,.1.1H163.47a.1.1,0,0,0,.1-.1v-.288A.105.105,0,0,0,163.495,140.676Z" transform="translate(-118.648 -106.3)" fill="#fff"/>
        <path id="Trazado_11503" data-name="Trazado 11503" d="M211.7,116.089c-5.967.3-11.008,5.918-11.008,12.265v.239c0,6.321,5.041,11.915,11.008,12.217h.005a.106.106,0,0,0,.073-.029.107.107,0,0,0,.032-.076v-.287a.122.122,0,0,0-.088-.1c-1.24-.367-2.135-.632-2.135-11.72v-.239c0-10.98.882-11.305,2.1-11.755l.052-.019a.105.105,0,0,0,.068-.1v-.287a.107.107,0,0,0-.032-.076A.106.106,0,0,0,211.7,116.089Z" transform="translate(-149.048 -105.748)" fill="#fff"/>
        <path id="Trazado_11504" data-name="Trazado 11504" d="M232.735,116.089a.1.1,0,0,0-.11.1v.287a.1.1,0,0,0,.068.1l.052.019c1.221.45,2.1.775,2.1,11.755v.239c0,11.088-.9,11.353-2.148,11.724a.1.1,0,0,0-.075.1v.287a.1.1,0,0,0,.1.1h.005c5.966-.3,11.008-5.9,11.008-12.217v-.239C243.743,122.007,238.7,116.39,232.735,116.089Z" transform="translate(-167.9 -105.748)" fill="#fff"/>
        <path id="Trazado_11505" data-name="Trazado 11505" d="M278.748,126.18l-.207-.143a.1.1,0,0,0-.141.02,3.809,3.809,0,0,1-3.021,1.446,2.191,2.191,0,0,1-2.325-2.48v-17.8h5.323a.1.1,0,0,0,.1-.1v-.67a.1.1,0,0,0-.1-.1h-5.323V98.931h-.465l-7.671,6.815a.106.106,0,0,0-.035.079v.517h-2.118a.1.1,0,0,0-.1.1v.67a.1.1,0,0,0,.1.1h2.118v18.231c0,3.352,2.337,5.275,6.412,5.275,3.59,0,6.109-1.486,7.488-4.417A.1.1,0,0,0,278.748,126.18Z" transform="translate(-185.632 -95.618)" fill="#fff"/>
        <path id="Trazado_11506" data-name="Trazado 11506" d="M314.266,125.22l-2.61-.7v-19.69l.206-13.883a.1.1,0,0,0-.121-.105L301.35,92.473a.106.106,0,0,0-.089.1v.335a.1.1,0,0,0,.048.088l2.175,1.405v30.119l-2.508.7a.1.1,0,0,0-.077.1v.288a.1.1,0,0,0,.105.1h13.234a.1.1,0,0,0,.1-.1v-.288A.106.106,0,0,0,314.266,125.22Z" transform="translate(-208.208 -90.844)" fill="#fff"/>
        <path id="Trazado_11507" data-name="Trazado 11507" d="M346.842,140.125l-2.559-.7V122.513c0-4.022-2.3-6.424-6.153-6.424a10.415,10.415,0,0,0-6.273,2.324.1.1,0,0,0-.036.079v.287a.105.105,0,0,0,.1.1c2.856,0,4.186,1.336,4.186,4.2v16.344l-2.151.694a.106.106,0,0,0-.073.1v.288a.1.1,0,0,0,.105.1h12.821a.1.1,0,0,0,.1-.1v-.288A.106.106,0,0,0,346.842,140.125Z" transform="translate(-226.464 -105.748)" fill="#fff"/>
        <path id="Trazado_11508" data-name="Trazado 11508" d="M392.456,135.925a.1.1,0,0,0-.135-.031,11.111,11.111,0,0,1-5.223,1.471c-4.564,0-7.288-3.594-7.288-9.613v-.288c0-8.829,1.476-10.4,2.92-10.766a.105.105,0,0,0,.079-.1v-.287a.105.105,0,0,0-.1-.105,11.193,11.193,0,0,0-8.071,3.642,13.615,13.615,0,0,0-3.563,9.389v.191c0,6.878,4.385,11.5,10.91,11.5a13.859,13.859,0,0,0,10.676-4.583.1.1,0,0,0,.007-.131Z" transform="translate(-249.635 -105.817)" fill="#fff"/>
        <path id="Trazado_11509" data-name="Trazado 11509" d="M400.479,116.089a.1.1,0,0,0-.09.038.1.1,0,0,0-.02.1,32.075,32.075,0,0,1,.571,9.974l-3.269.233a.105.105,0,0,0-.1.1v.335a.105.105,0,0,0,.1.1H408.9a.105.105,0,0,0,.1-.1V126.1C409,121.632,405.577,116.541,400.479,116.089Z" transform="translate(-265.283 -105.748)" fill="#fff"/>
        <path id="Trazado_11510" data-name="Trazado 11510" d="M467.792,120.072a4.122,4.122,0,0,0-4.24-3.983,3.9,3.9,0,1,0,4.24,3.983Z" transform="translate(-301.792 -105.748)" fill="#fff"/>
        <path id="Trazado_11511" data-name="Trazado 11511" d="M442.409,140.676l-3.487-.842V117.129a.1.1,0,0,0-.1-.1H428.633a.1.1,0,0,0-.1.1v.335a.1.1,0,0,0,.048.088l2.175,1.405V139.98l-2.56.7a.105.105,0,0,0-.077.1v.288a.1.1,0,0,0,.1.1h14.165a.1.1,0,0,0,.1-.1v-.288A.105.105,0,0,0,442.409,140.676Z" transform="translate(-283.313 -106.3)" fill="#fff"/>
      </g>
    </g>
    <g id="Grupo_3325" data-name="Grupo 3325" transform="translate(119.91 133.401)">
      <path id="Trazado_11512" data-name="Trazado 11512" d="M185.574,195.253v.98h1.471v.305h-1.471v1.113h1.642v.305H185.2v-3.009h2.02v.306Z" transform="translate(-185.196 -194.861)" fill="#fff"/>
      <path id="Trazado_11513" data-name="Trazado 11513" d="M196.476,197c0,.64-.335.915-1.126.915s-1.131-.284-1.131-.946h.349c0,.469.223.658.782.658s.766-.168.766-.572c0-.847-1.853-.331-1.853-1.406,0-.641.327-.915,1.088-.915s1.084.283,1.084.946h-.344c0-.465-.215-.658-.74-.658s-.726.163-.726.572C194.623,196.367,196.476,195.869,196.476,197Z" transform="translate(-190.523 -194.738)" fill="#fff"/>
      <path id="Trazado_11514" data-name="Trazado 11514" d="M206.655,196.849a1.24,1.24,0,0,1-1.328,1.07c-.972,0-1.4-.477-1.4-1.591s.43-1.591,1.4-1.591a1.161,1.161,0,0,1,1.328,1.07h-.378a.835.835,0,0,0-.95-.744c-.7,0-1.006.37-1.006,1.264s.3,1.264,1.006,1.264a.89.89,0,0,0,.95-.743Z" transform="translate(-196.253 -194.738)" fill="#fff"/>
      <path id="Trazado_11515" data-name="Trazado 11515" d="M215.1,194.947h.378v1.917c0,.6.232.851.8.851s.791-.249.791-.851v-1.917h.378v1.917c0,.825-.352,1.178-1.169,1.178s-1.174-.353-1.174-1.178Z" transform="translate(-202.851 -194.861)" fill="#fff"/>
      <path id="Trazado_11516" data-name="Trazado 11516" d="M226.13,195.253v.98h1.47v.305h-1.47v1.113h1.642v.305h-2.021v-3.009h2.021v.306Z" transform="translate(-209.139 -194.861)" fill="#fff"/>
      <path id="Trazado_11517" data-name="Trazado 11517" d="M237.043,197.956h-1.849v-3.009h.378v2.683h1.47Z" transform="translate(-214.714 -194.861)" fill="#fff"/>
      <path id="Trazado_11518" data-name="Trazado 11518" d="M245.575,197.226h-1.346l-.258.731h-.382l1.074-3.009h.52l1.04,3.009h-.4Zm-1.246-.288h1.143L244.9,195.3Z" transform="translate(-219.67 -194.861)" fill="#fff"/>
      <path id="Trazado_11519" data-name="Trazado 11519" d="M261.546,197.956h-1.032v-3.009h1.032c.972,0,1.389.452,1.389,1.5S262.517,197.956,261.546,197.956Zm-.653-2.7v2.4h.636c.714,0,1.01-.352,1.01-1.2s-.3-1.2-1.01-1.2Z" transform="translate(-229.662 -194.861)" fill="#fff"/>
      <path id="Trazado_11520" data-name="Trazado 11520" d="M271.416,195.253v.98h1.47v.305h-1.47v1.113h1.642v.305h-2.021v-3.009h2.021v.306Z" transform="translate(-235.876 -194.861)" fill="#fff"/>
      <path id="Trazado_11521" data-name="Trazado 11521" d="M288.877,196.849a1.24,1.24,0,0,1-1.328,1.07c-.972,0-1.4-.477-1.4-1.591s.43-1.591,1.4-1.591a1.161,1.161,0,0,1,1.328,1.07H288.5a.835.835,0,0,0-.95-.744c-.7,0-1.006.37-1.006,1.264s.3,1.264,1.006,1.264a.89.89,0,0,0,.95-.743Z" transform="translate(-244.796 -194.738)" fill="#fff"/>
      <path id="Trazado_11522" data-name="Trazado 11522" d="M298.735,196.819h-.928v1.148h-.378v-3.009h1.285c.735,0,1.04.357,1.04.941a.785.785,0,0,1-.653.877l.662,1.186h-.4Zm-.039-.292c.477,0,.679-.211.679-.632s-.2-.636-.679-.636h-.89v1.268Z" transform="translate(-251.456 -194.868)" fill="#fff"/>
      <path id="Trazado_11523" data-name="Trazado 11523" d="M308.121,195.253v.98h1.471v.305h-1.471v1.113h1.643v.305h-2.021v-3.009h2.021v.306Z" transform="translate(-257.546 -194.861)" fill="#fff"/>
      <path id="Trazado_11524" data-name="Trazado 11524" d="M318.752,197.226h-1.346l-.258.731h-.383l1.075-3.009h.52l1.04,3.009h-.4Zm-1.247-.288h1.144l-.567-1.638Z" transform="translate(-262.873 -194.861)" fill="#fff"/>
      <path id="Trazado_11525" data-name="Trazado 11525" d="M329.338,195.274H328.4v2.683h-.379v-2.683h-.937v-.327h2.257Z" transform="translate(-268.962 -194.861)" fill="#fff"/>
      <path id="Trazado_11526" data-name="Trazado 11526" d="M337.48,194.947v3.009H337.1v-3.009Z" transform="translate(-274.878 -194.861)" fill="#fff"/>
      <path id="Trazado_11527" data-name="Trazado 11527" d="M343.743,197.69l.929-2.743h.378l-1.04,3.009h-.533l-1.045-3.009h.383Z" transform="translate(-278.025 -194.861)" fill="#fff"/>
      <path id="Trazado_11528" data-name="Trazado 11528" d="M355.459,196.329c0,1.113-.426,1.591-1.427,1.591s-1.432-.477-1.432-1.591.43-1.591,1.432-1.591S355.459,195.215,355.459,196.329Zm-2.463,0c0,.894.305,1.264,1.036,1.264s1.036-.369,1.036-1.264-.305-1.264-1.036-1.264S353,195.434,353,196.329Z" transform="translate(-284.028 -194.738)" fill="#fff"/>
      <path id="Trazado_11529" data-name="Trazado 11529" d="M366.032,197c0,.64-.335.915-1.126.915s-1.131-.284-1.131-.946h.348c0,.469.223.658.782.658s.765-.168.765-.572c0-.847-1.853-.331-1.853-1.406,0-.641.327-.915,1.088-.915s1.083.283,1.083.946h-.344c0-.465-.215-.658-.739-.658s-.726.163-.726.572C364.179,196.367,366.032,195.869,366.032,197Z" transform="translate(-290.626 -194.738)" fill="#fff"/>
    </g>
  </g>
</svg>
