<svg id="Grupo_12114" data-name="Grupo 12114" xmlns="http://www.w3.org/2000/svg" width="40.014" height="40.013" viewBox="0 0 40.014 40.013">
  <g id="Grupo_11678" data-name="Grupo 11678" transform="translate(6.835 15.121)">
    <g id="Grupo_11764" data-name="Grupo 11764" transform="translate(0 3.716)">
      <path id="Trazado_11739" data-name="Trazado 11739" d="M1911.43,1326.837v-.671h-2.917v.051h0v.844a2.544,2.544,0,0,1-.021.292,9.353,9.353,0,0,1-6.485,9.033c-4.813,1.792-12.359.227-13.72-7.272-.174-.958-.281-1.929-.413-2.9h0v-.057h-2.786v.852h.011c0,.047-.005.085,0,.136.325,4.825,2.405,8.676,6.7,11.1a12.609,12.609,0,0,0,13.37-.2c4.041-2.415,5.954-6.145,6.239-10.731A4.158,4.158,0,0,0,1911.43,1326.837Z" transform="translate(-1885.088 -1326.162)" fill="#e9e6e1"/>
    </g>
    <g id="Rectángulo_18197" data-name="Rectángulo 18197" transform="translate(2.795 0.004)">
      <rect id="Rectángulo_18309" data-name="Rectángulo 18309" width="3.829" height="3.769" fill="#e9e6e1"/>
    </g>
    <g id="Rectángulo_18198" data-name="Rectángulo 18198" transform="translate(19.597)">
      <rect id="Rectángulo_18310" data-name="Rectángulo 18310" width="3.829" height="3.769" fill="#e9e6e1"/>
    </g>
  </g>
  <g id="Grupo_11765" data-name="Grupo 11765">
    <path id="Trazado_11740" data-name="Trazado 11740" d="M1897.688,1308.632a17.175,17.175,0,0,1,11.976,5.207,16.557,16.557,0,0,1,4.735,11.987,16.944,16.944,0,0,1-16.784,16.453,17.181,17.181,0,0,1-12.02-5.106,16.55,16.55,0,0,1-4.839-11.944,17.087,17.087,0,0,1,16.931-16.6m.02-3.184a20.007,20.007,0,1,0,19.873,20.449,20.172,20.172,0,0,0-19.873-20.449Z" transform="translate(-1877.572 -1305.448)" fill="#e9e6e1"/>
  </g>
  <g id="Grupo_11766" data-name="Grupo 11766" transform="translate(9.627 15.026)">
    <path id="Trazado_11741" data-name="Trazado 11741" d="M1892.027,1321.971h-3.87v3.87h3.87v-3.87Z" transform="translate(-1888.157 -1321.971)" fill="#e9e6e1"/>
  </g>
  <g id="Grupo_11767" data-name="Grupo 11767" transform="translate(26.415 15.076)">
    <path id="Trazado_11742" data-name="Trazado 11742" d="M1910.489,1322.025h-3.87v3.87h3.87v-3.87Z" transform="translate(-1906.619 -1322.025)" fill="#e9e6e1"/>
  </g>
</svg>
