<svg id="Grupo_12130" data-name="Grupo 12130" xmlns="http://www.w3.org/2000/svg" width="48.924" height="40.018" viewBox="0 0 48.924 40.018">
  <g id="Grupo_11777" data-name="Grupo 11777">
    <path id="Trazado_11748" data-name="Trazado 11748" d="M1913.82,1364.664a4.534,4.534,0,0,1,3.127,1.371,4.3,4.3,0,0,1,1.234,3.113,4.4,4.4,0,0,1-3.176,4.1l-2.988.9.87,3a16.417,16.417,0,0,1,.643,4.94,16.781,16.781,0,0,1-16.621,16.294,17.014,17.014,0,0,1-11.9-5.057,16.281,16.281,0,0,1-4.208-15.868l.787-2.925-2.891-.9a4.377,4.377,0,0,1-3.13-4.238,4.371,4.371,0,0,1,7.991-2.409l1.745,2.487,2.55-1.654a16.176,16.176,0,0,1,17.9-.108l2.65,1.678,1.692-2.641a4.516,4.516,0,0,1,3.732-2.076m.02-3.153a7.679,7.679,0,0,0-6.407,3.529,19.319,19.319,0,0,0-21.3.127,7.522,7.522,0,0,0-13.723,4.176,7.557,7.557,0,0,0,5.342,7.29,19.567,19.567,0,0,0-.692,4.815,19.813,19.813,0,0,0,39.62.706,19.546,19.546,0,0,0-.767-5.89,7.527,7.527,0,0,0-2.073-14.753Z" transform="translate(-1872.41 -1361.511)" fill="#e1df3c"/>
  </g>
  <g id="Grupo_11778" data-name="Grupo 11778" transform="translate(19.507 19.11)">
    <path id="Trazado_11749" data-name="Trazado 11749" d="M1899.724,1391.105l-5.654-5.955,2.287-2.171,3.316,3.494,3.4-3.743,2.332,2.12Z" transform="translate(-1894.069 -1382.731)" fill="#e1df3c"/>
  </g>
</svg>
