<svg xmlns="http://www.w3.org/2000/svg" width="61.246" height="61.246" viewBox="0 0 61.246 61.246">
  <g id="Grupo_12381" data-name="Grupo 12381" transform="translate(-630.868 124.848)" style="isolation: isolate">
    <path id="Trazado_11583" data-name="Trazado 11583" d="M692.114-96.755v4.973h-.262q-8.814-.524-17.1-1.221-10.034-.7-11.6-.786l2.967,1.4q16.663,7.853,22.946,11.08l.261.175-2.53,4.275-.174-.175q-6.458-4.187-16.228-10.818-5.5-3.838-7.678-5.234l4.8,7.067q6.367,9.075,11.429,16.838l.088.174-4.276,2.53-.087-.262q-2.531-4.885-7.852-15.966-2.707-5.67-4.886-10.12,0,.611.611,7.765,1.221,15.618,1.483,21.2v.262h-4.973v-.262q.524-8.811,1.221-17.1.7-10.032.785-11.6l-1.4,2.966q-7.852,16.665-11.08,22.946l-.174.261-4.276-2.53.174-.174q4.188-6.456,10.819-16.228,3.837-5.5,5.234-7.677l-7.067,4.8q-9.074,6.37-16.838,11.429l-.174.088-2.53-4.276.262-.087q4.885-2.529,15.966-7.852,5.67-2.7,10.12-4.886-.612,0-7.765.611-15.618,1.223-21.2,1.483h-.262v-4.972h.262q8.811.523,17.1,1.221,10.032.7,11.6.786l-2.967-1.4q-16.665-7.852-22.946-11.079l-.261-.174,2.53-4.276.175.175q6.455,4.187,16.227,10.818,5.5,3.839,7.677,5.234l-4.8-7.067q-6.37-9.072-11.429-16.838l-.088-.174,4.275-2.53.088.262q2.529,4.887,7.852,15.966,2.7,5.673,4.885,10.121,0-.611-.61-7.765-1.224-15.616-1.483-21.2v-.262h4.972v.262q-.523,8.814-1.221,17.1-.7,10.034-.785,11.6l1.4-2.967q7.853-16.663,11.08-22.945l.175-.262,4.275,2.53-.175.175q-4.187,6.457-10.818,16.227-3.84,5.5-5.234,7.677l7.066-4.8q9.073-6.367,16.838-11.429l.174-.088,2.53,4.275-.262.088q-4.887,2.531-15.966,7.852-5.673,2.7-10.12,4.886.609,0,7.765-.611,15.616-1.221,21.2-1.483Z" transform="translate(0 0)" fill="#e1df3c"/>
  </g>
</svg>
